<svg width="32" height="32" viewBox="0 0 32 32" fill="none" xmlns="http://www.w3.org/2000/svg">
<path d="M19.153 2.34998V2.49998C19.153 2.92021 19.0702 3.33632 18.9094 3.72456C18.7486 4.1128 18.5129 4.46557 18.2157 4.76272C17.9186 5.05986 17.5658 5.29558 17.1776 5.45639C16.7893 5.61721 16.3732 5.69998 15.953 5.69998C15.5328 5.69998 15.1167 5.61721 14.7284 5.45639C14.3402 5.29558 13.9874 5.05986 13.6903 4.76272C13.3931 4.46557 13.1574 4.1128 12.9966 3.72456C12.8358 3.33632 12.753 2.92021 12.753 2.49998V2.34998H2V30.269H29.919V2.34998H19.153Z" fill="#654FF0"/>
<path d="M8.48499 17.4H10.335L11.6 24.123H11.623L13.14 17.4H14.871L16.242 24.21H16.269L17.709 17.4H19.524L17.166 27.285H15.329L13.969 20.557H13.933L12.477 27.285H10.607L8.48499 17.4ZM21.609 17.4H24.526L27.426 27.285H25.515L24.885 25.085H21.562L21.076 27.285H19.217L21.609 17.4ZM22.719 19.837L21.912 23.464H24.424L23.5 19.832L22.719 19.837Z" fill="white"/>
<path d="M21.2546 5C22.4753 5 23.646 5.4849 24.5091 6.34804C25.3722 7.21117 25.8571 8.38183 25.8571 9.60248C25.8571 10.7425 25.4394 11.7904 24.7525 12.5976L24.9437 12.7888H25.5031L29.0435 16.3292L27.9814 17.3913L24.441 13.8509V13.2916L24.2498 13.1004C23.4147 13.8132 22.3527 14.2049 21.2546 14.205C20.034 14.205 18.8633 13.7201 18.0002 12.8569C17.1371 11.9938 16.6522 10.8231 16.6522 9.60248C16.6522 8.38183 17.1371 7.21117 18.0002 6.34804C18.8633 5.4849 20.034 5 21.2546 5ZM21.2546 6.41615C19.4845 6.41615 18.0683 7.8323 18.0683 9.60248C18.0683 11.3727 19.4845 12.7888 21.2546 12.7888C23.0248 12.7888 24.441 11.3727 24.441 9.60248C24.441 7.8323 23.0248 6.41615 21.2546 6.41615Z" fill="white"/>
</svg>
